<svg width="188" height="139" viewBox="0 0 188 139" fill="none" xmlns="http://www.w3.org/2000/svg">
    <mask id="mask0" mask-type="alpha" maskUnits="userSpaceOnUse" x="0" y="0" width="188" height="139">
        <path d="M181.801 83.7371V38.229C181.801 33.1002 176.609 27.9049 171.482 27.9049H152.886C152.064 27.9049 151.276 28.2315 150.695 28.8129L145.404 34.106H129.114V10.3241C129.114 5.19527 123.921 0 118.794 0H100.199C99.3766 0 97.5664 1.3491 96.9853 1.93046L92.7161 6.20109H69.2058C64.0791 6.20109 58.8862 11.3964 58.8862 16.5252V21.7038H47.5109C46.6889 21.7038 45.9005 22.0305 45.3194 22.6118L40.0286 27.9049H16.5181C11.3912 27.9049 6.19855 33.1002 6.19855 38.229V75.6622C2.14383 82.0881 0 89.4906 0 97.1394C0 107.909 4.19151 118.031 11.8012 125.639C19.4077 133.253 30.5471 138.469 41.3123 138.469H152.886C161.989 138.469 171.572 133.899 178.016 127.457C184.454 121.011 188 112.447 188 103.34C188 96.2448 185.856 89.4902 181.801 83.7371ZM128.092 41.3296H146.688C147.51 41.3296 148.298 41.0029 148.879 40.4216L154.17 35.1285H171.482C173.191 35.1285 174.581 36.5194 174.581 38.229V77.0271C174.564 77.0129 174.546 76.9998 174.529 76.9857C174.41 76.8872 174.286 76.7948 174.166 76.698C173.872 76.4628 173.578 76.2293 173.278 76.0044C173.117 75.8839 172.953 75.769 172.791 75.6515C172.525 75.4592 172.258 75.2686 171.987 75.0845C171.809 74.9642 171.63 74.8476 171.451 74.7308C171.187 74.5587 170.922 74.3896 170.654 74.2253C170.469 74.112 170.283 74.0005 170.096 73.8909C169.825 73.7318 169.552 73.5775 169.277 73.4262C169.091 73.3237 168.905 73.2211 168.717 73.1221C168.428 72.9703 168.136 72.8254 167.843 72.6822C167.666 72.5953 167.49 72.5061 167.311 72.4224C166.973 72.2646 166.632 72.1161 166.29 71.9697C166.152 71.9107 166.016 71.8473 165.878 71.7902C165.396 71.5917 164.91 71.4038 164.419 71.2278C164.321 71.1925 164.221 71.1624 164.122 71.128C163.728 70.9906 163.331 70.8577 162.932 70.735C162.753 70.6802 162.573 70.6318 162.394 70.58C162.069 70.4863 161.745 70.3943 161.417 70.3101C161.216 70.2584 161.013 70.2114 160.81 70.1634C160.5 70.0899 160.189 70.0192 159.877 69.9544C159.666 69.9106 159.454 69.8696 159.242 69.8297C158.932 69.7714 158.62 69.7177 158.307 69.668C158.095 69.6343 157.883 69.601 157.669 69.5711C157.347 69.5261 157.023 69.4879 156.699 69.452C156.495 69.4294 156.292 69.4049 156.087 69.386C155.73 69.353 155.372 69.3292 155.013 69.3072C154.839 69.2966 154.666 69.2816 154.492 69.2737C153.959 69.249 153.424 69.2345 152.886 69.2345C150.096 69.2345 147.343 69.5698 144.666 70.2341C142.218 61.6568 137.623 53.8396 131.253 47.4629C130.799 47.0102 130.335 46.5695 129.867 46.1348C129.748 46.0239 129.628 45.9143 129.508 45.8048C129.07 45.405 128.628 45.0122 128.181 44.6309C128.151 44.6054 128.122 44.5778 128.092 44.5524V41.3296ZM66.1065 25.8268V16.5252C66.1065 14.8156 67.4969 13.4247 69.2058 13.4247H94C94.8219 13.4247 95.6104 13.098 96.1915 12.5167L101.482 7.22356H118.794C120.503 7.22356 121.893 8.6145 121.893 10.3241V38.229V40.0181C121.867 40.0015 121.839 39.9863 121.813 39.9697C121.309 39.6562 120.801 39.3529 120.288 39.0572C120.174 38.9915 120.059 38.9268 119.945 38.8619C119.416 38.5625 118.885 38.269 118.348 37.9891C110.893 34.0892 102.473 32.0279 94 32.0279C92.9895 32.0279 91.9841 32.0558 90.9843 32.1115C83.9855 32.5012 77.2584 34.2527 70.9503 37.3316C70.5256 37.5381 70.1037 37.751 69.6841 37.9696C69.5336 38.0478 69.3852 38.1306 69.2354 38.2105C68.9674 38.3534 68.6991 38.4956 68.4333 38.6434C68.2591 38.7402 68.0871 38.8414 67.9139 38.9403C67.6744 39.0771 67.4345 39.2129 67.197 39.3536C67.0183 39.4595 66.8417 39.5691 66.6641 39.6772C66.4783 39.7903 66.291 39.9004 66.1065 40.0158V25.8268ZM13.4188 38.229C13.4188 36.5194 14.8092 35.1285 16.5181 35.1285H41.3123C42.1342 35.1285 42.9227 34.8018 43.5038 34.2205L48.7945 28.9274H59.908V44.5505C59.7931 44.6481 59.6839 44.751 59.5699 44.8495C59.3227 45.0629 59.0796 45.2802 58.8368 45.4978C58.5193 45.7822 58.2048 46.0692 57.895 46.3606C57.656 46.5853 57.4196 46.8124 57.1851 47.0413C56.8824 47.3367 56.5839 47.6357 56.2888 47.9378C56.0605 48.1716 55.8334 48.4064 55.6096 48.6442C55.3187 48.9533 55.0336 49.2671 54.7505 49.5829C54.5353 49.823 54.3197 50.0628 54.109 50.3068C53.8271 50.6333 53.5524 50.9656 53.2787 51.2989C53.0794 51.5415 52.878 51.7825 52.6831 52.0288C52.4052 52.3798 52.1363 52.7379 51.8673 53.0961C51.6888 53.3339 51.5066 53.5686 51.3321 53.8094C51.0443 54.2067 50.7674 54.6123 50.4905 55.018C50.3468 55.2286 50.1977 55.4349 50.057 55.6476C49.6625 56.2439 49.2795 56.849 48.9084 57.4627C48.8929 57.4885 48.8758 57.5131 48.8602 57.5389C47.3148 57.2456 45.7471 57.0429 44.1672 56.9321C43.2193 56.8657 42.2669 56.8323 41.3123 56.8323C40.9286 56.8323 40.546 56.8393 40.164 56.8501C40.0467 56.8535 39.9297 56.8586 39.8126 56.863C39.5407 56.873 39.2693 56.8855 38.9983 56.9009C38.8722 56.9082 38.7462 56.9155 38.6202 56.9238C38.3291 56.9432 38.0387 56.9661 37.7487 56.9916C37.658 56.9997 37.5669 57.0062 37.4763 57.0148C37.1004 57.0505 36.7256 57.0914 36.352 57.1374C36.2637 57.1483 36.1759 57.1613 36.0878 57.1727C35.7986 57.2104 35.51 57.2506 35.2223 57.2944C35.099 57.3132 34.9759 57.333 34.8529 57.3529C34.5884 57.3957 34.3247 57.4412 34.0616 57.4892C33.947 57.51 33.8323 57.5302 33.718 57.552C33.3629 57.6199 33.0088 57.6915 32.6563 57.7688C32.6424 57.7719 32.6283 57.7744 32.6144 57.7775C32.2493 57.858 31.8862 57.9449 31.5242 58.0353C31.4126 58.0631 31.3017 58.0927 31.1905 58.1215C30.9333 58.1881 30.6768 58.257 30.4212 58.3286C30.3004 58.3625 30.1796 58.3966 30.0591 58.4315C29.7881 58.5102 29.5182 58.5922 29.2491 58.6765C29.1599 58.7045 29.0702 58.731 28.9813 58.7595C28.6283 58.8729 28.2771 58.9908 27.9278 59.1137C27.8464 59.1424 27.7658 59.1729 27.6846 59.2022C27.4131 59.2996 27.1427 59.3995 26.8737 59.5027C26.758 59.5471 26.6428 59.5925 26.5276 59.6379C26.2831 59.7343 26.0397 59.8332 25.7973 59.9344C25.6894 59.9793 25.5813 60.0237 25.4738 60.0697C25.1532 60.2067 24.8342 60.3471 24.5174 60.4923C24.4965 60.5019 24.4752 60.5109 24.4543 60.5205C24.1181 60.6754 23.7847 60.8361 23.453 61.0002C23.3513 61.0505 23.2504 61.1025 23.1491 61.1536C22.9134 61.2727 22.6789 61.3938 22.4456 61.5174C22.335 61.576 22.2245 61.635 22.1144 61.6947C21.8699 61.8273 21.627 61.9627 21.3853 62.1004C21.3018 62.1479 21.2176 62.1943 21.1344 62.2425C20.815 62.4273 20.498 62.6165 20.1837 62.8103C20.1128 62.8539 20.043 62.8994 19.9723 62.9435C19.7261 63.0974 19.4812 63.2537 19.2382 63.413C19.135 63.4807 19.0324 63.5493 18.9297 63.618C18.7116 63.7639 18.4949 63.912 18.2795 64.0623C18.1828 64.1297 18.0859 64.1966 17.9898 64.2648C17.7114 64.4627 17.435 64.6638 17.1614 64.8689C17.1368 64.8874 17.1117 64.9051 17.0872 64.9235C16.7902 65.1472 16.4969 65.3763 16.2059 65.6084C16.1192 65.6777 16.0336 65.7483 15.9475 65.8182C15.7389 65.9875 15.5318 66.1585 15.3264 66.3321C15.2318 66.4121 15.1374 66.4923 15.0434 66.5732C14.8302 66.7568 14.619 66.9431 14.4094 67.1314C14.3378 67.1958 14.2654 67.259 14.1942 67.3238C13.9331 67.5619 13.6741 67.8027 13.4188 68.0479V38.229ZM172.611 123.072C167.339 128.343 160.334 131.245 152.886 131.245H41.3123C32.2037 131.245 23.6428 127.697 17.2059 121.255C10.7666 114.816 7.22029 106.252 7.22029 97.1394C7.22029 90.3933 9.18439 83.8735 12.9005 78.284C19.247 68.7345 29.8682 63.0334 41.3123 63.0334C44.1471 63.0334 46.9547 63.3797 49.6571 64.0629C51.0301 64.4103 52.4621 63.7824 53.1387 62.5391C53.5098 61.857 53.8966 61.1859 54.2989 60.5262C57.1146 55.9088 60.6881 51.8473 64.9456 48.4307C67.6529 46.262 70.5848 44.4042 73.664 42.9071C80.0238 39.8028 86.8658 39.229 94 39.229C101.477 39.229 108.903 40.0461 115.479 43.4862C115.813 43.6599 116.144 43.8378 116.474 44.02C118.78 45.2954 120.989 46.7777 123.058 48.4375C124.37 49.4863 125.655 50.6357 126.872 51.8503C133.193 58.1771 137.533 66.112 139.425 74.7974C139.615 75.6687 140.171 76.4162 140.95 76.8488C141.729 77.2814 142.657 77.3575 143.497 77.057C146.504 75.981 149.663 75.4356 152.886 75.4356C153.352 75.4356 153.815 75.4469 154.277 75.4694C155.662 75.5371 157.029 75.7056 158.369 75.9713C158.815 76.06 159.259 76.1594 159.699 76.2695C164.542 77.4804 168.985 79.9836 172.606 83.6036C173.551 84.5529 174.424 85.5597 175.203 86.6001C178.851 91.4557 180.78 97.2442 180.78 103.34C180.78 110.791 177.878 117.799 172.611 123.072Z" fill="black"/>
        <path d="M62.0745 92.8841H82.7225V63.4387H105.278V92.8841H125.926L94.0001 124.639L62.0745 92.8841ZM98.6439 99.4825V70.0371H89.3564V99.4825H78.0788L94.0001 115.319L109.921 99.4825H98.6439Z" fill="black"/>
    </mask>
    <g mask="url(#mask0)">
        <rect width="188" height="139" fill="url(#paint0_linear)"/>
    </g>
    <defs>
        <linearGradient id="paint0_linear" x1="0" y1="0" x2="132.895" y2="179.743" gradientUnits="userSpaceOnUse">
            <stop stop-color="#A689BE"/>
            <stop offset="1" stop-color="#EFB5BA"/>
        </linearGradient>
    </defs>
</svg>
