<svg width="182" height="182" viewBox="0 0 182 182" fill="none" xmlns="http://www.w3.org/2000/svg">
    <mask id="mask0" mask-type="alpha" maskUnits="userSpaceOnUse" x="0" y="0" width="182" height="182">
        <path d="M19.3166 176.827H26.9833C26.9833 173.88 28.1545 171.054 30.2393 168.97C32.3241 166.887 35.1516 165.716 38.1 165.716C39.4802 165.69 40.8509 165.951 42.125 166.482L45.3833 167.823L46.9166 164.566C47.8106 162.901 49.1363 161.506 50.755 160.528C52.3736 159.551 54.2256 159.027 56.1166 159.011C58.7141 159.006 61.2144 159.997 63.1038 161.779C64.9931 163.56 66.1279 165.997 66.275 168.59L66.6583 173.762L71.45 172.038L74.1333 171.655C76.2683 171.655 78.3158 172.503 79.8255 174.012C81.3352 175.52 82.1833 177.567 82.1833 179.701V180.084H89.85V179.51C89.85 175.343 88.1941 171.347 85.2467 168.401C82.2992 165.455 78.3016 163.8 74.1333 163.8H73.175C72.0309 160.178 69.7587 157.016 66.69 154.776C63.6213 152.536 59.9166 151.335 56.1166 151.347C53.3603 151.325 50.6378 151.955 48.1724 153.187C45.707 154.419 43.5689 156.218 41.9333 158.436L38.1 158.053C36.4067 158.013 34.7196 158.272 33.1166 158.819C31.8922 155.315 29.6146 152.275 26.5954 150.115C23.5762 147.954 19.963 146.779 16.25 146.75C12.9168 146.69 9.63511 147.577 6.7855 149.306C3.93589 151.035 1.63511 153.537 0.149963 156.52L7.04996 159.968C7.91018 158.275 9.22829 156.857 10.8546 155.875C12.4809 154.893 14.3501 154.386 16.25 154.413C18.5329 154.405 20.7493 155.181 22.5285 156.611C24.3078 158.04 25.542 160.037 26.025 162.267C23.9309 164.074 22.2486 166.309 21.0914 168.82C19.9342 171.332 19.3291 174.062 19.3166 176.827Z" fill="#838181"/>
        <path d="M164.025 164.95C166.622 164.945 169.123 165.936 171.012 167.718C172.901 169.499 174.036 171.936 174.183 174.529L181.85 174.145C181.605 169.588 179.619 165.299 176.302 162.162C172.985 159.025 168.591 157.28 164.025 157.286C159.573 157.292 155.277 158.928 151.95 161.884C150.101 158.876 147.507 156.395 144.417 154.684C141.328 152.972 137.849 152.087 134.317 152.114C130.088 152.132 125.963 153.42 122.477 155.812C118.991 158.203 116.304 161.587 114.767 165.524C111.044 165.972 107.505 167.394 104.51 169.648C101.514 171.902 99.1678 174.908 97.7083 178.36L104.8 181.234C105.826 178.781 107.558 176.688 109.776 175.222C111.994 173.755 114.599 172.98 117.258 172.996H120.708L121.283 169.931C121.824 166.585 123.63 163.576 126.328 161.523C129.025 159.47 132.408 158.532 135.778 158.9C139.148 159.269 142.248 160.917 144.437 163.505C146.626 166.092 147.737 169.421 147.542 172.804C147.554 174.104 147.36 175.397 146.967 176.636L154.25 179.126C154.955 177.162 155.28 175.082 155.208 172.996C155.24 172.034 155.175 171.071 155.017 170.122C155.897 168.515 157.204 167.182 158.793 166.27C160.383 165.357 162.193 164.9 164.025 164.95Z" fill="#838181"/>
        <path d="M91.1916 76.6316C94.1863 76.6316 97.1138 75.744 99.6039 74.0809C102.094 72.4179 104.035 70.0542 105.181 67.2887C106.327 64.5232 106.627 61.4801 106.042 58.5442C105.458 55.6084 104.016 52.9116 101.898 50.795C99.7808 48.6784 97.0828 47.2369 94.1456 46.6529C91.2084 46.069 88.1639 46.3687 85.3971 47.5142C82.6304 48.6597 80.2655 50.5996 78.6018 53.0885C76.938 55.5773 76.0499 58.5035 76.0499 61.4969C76.0499 65.5108 77.6452 69.3604 80.4848 72.1987C83.3244 75.037 87.1758 76.6316 91.1916 76.6316ZM91.1916 54.0253C93.1741 54.0253 95.0754 54.8125 96.4772 56.2137C97.8791 57.6149 98.6666 59.5153 98.6666 61.4969C98.6666 63.4784 97.8791 65.3789 96.4772 66.7801C95.0754 68.1813 93.1741 68.9684 91.1916 68.9684C89.2091 68.9684 87.3078 68.1813 85.906 66.7801C84.5041 65.3789 83.7166 63.4784 83.7166 61.4969C83.7166 59.5153 84.5041 57.6149 85.906 56.2137C87.3078 54.8125 89.2091 54.0253 91.1916 54.0253Z" fill="#838181"/>
        <path d="M132.783 114.373L135.275 111.499C137.814 108.768 139.785 105.56 141.073 102.061C142.362 98.5628 142.943 94.8434 142.783 91.1187C142.622 87.394 141.724 83.7383 140.139 80.3634C138.554 76.9886 136.314 73.962 133.55 71.459C130.202 68.2915 126.216 65.8748 121.858 64.3705C121.092 41.7642 111.7 20.6905 93.875 3.06528L91.1916 0.383179L88.5083 3.06528C70.6833 20.6905 61.2916 41.7642 60.525 64.3705C56.2065 65.8376 52.2753 68.2607 49.025 71.459C46.2475 73.9488 43.9924 76.9653 42.3906 80.3332C40.7887 83.7012 39.8721 87.3536 39.6938 91.0785C39.5155 94.8035 40.0791 98.5267 41.3519 102.032C42.6247 105.538 44.5813 108.755 47.1083 111.499L49.6 114.373L66.275 99.4295C68.8069 106.533 72.2196 113.291 76.4333 119.545C79.3083 123.76 86.2083 125.484 91.9583 125.484H92.15C95.2166 125.484 102.308 124.91 105.375 120.695C109.781 114.055 113.384 106.917 116.108 99.4295L132.783 114.373ZM135.083 91.5748C135.259 95.6897 134.19 99.762 132.017 103.261L119.367 91.9579H119.75L118.792 90.8084C119.367 88.8927 119.75 87.1684 120.133 85.2527C120.927 81.077 121.44 76.8528 121.667 72.6085C124.06 73.9724 126.308 75.5772 128.375 77.3979C132.352 81.0849 134.755 86.1625 135.083 91.5748ZM91.1916 11.3032C95.025 15.3957 98.4885 19.8193 101.542 24.5221C98.2771 25.9462 94.7535 26.6813 91.1916 26.6813C87.6297 26.6813 84.1062 25.9462 80.8416 24.5221C83.8948 19.8193 87.3583 15.3957 91.1916 11.3032ZM77.0083 31.2274C81.4576 33.2655 86.2974 34.3114 91.1916 34.2927C96.0878 34.3301 100.932 33.2833 105.375 31.2274C113.663 47.4009 116.23 65.9024 112.658 83.72C112.275 85.0611 112.083 86.4021 111.7 87.9348C105.549 91.7742 98.4433 93.8099 91.1916 93.8099C83.94 93.8099 76.8341 91.7742 70.6833 87.9348C70.4916 86.5937 70.1083 85.2527 69.9166 83.9116C66.0003 66.0634 68.5117 47.4063 77.0083 31.2274ZM54.0083 77.2063C56.0754 75.3856 58.3231 73.7808 60.7166 72.4169C60.9136 76.801 61.4907 81.1598 62.4416 85.4442C62.6413 87.2042 63.0268 88.938 63.5916 90.6169L62.825 91.7663H63.0166L50.3666 103.069C47.9759 98.9771 47.0349 94.1988 47.6957 89.506C48.3565 84.8133 50.5804 80.4802 54.0083 77.2063ZM99.05 116.288C96.52 117.618 93.6473 118.152 90.8083 117.821C86.2083 117.438 83.3333 116.097 82.7583 115.331C79.1809 109.932 76.2234 104.149 73.9416 98.0884C79.4075 100.365 85.2703 101.537 91.1916 101.537C97.113 101.537 102.976 100.365 108.442 98.0884C105.967 104.471 102.818 110.572 99.05 116.288Z" fill="#838181"/>
        <path d="M95.0249 135.83H87.3583V156.022H95.0249V135.83Z" fill="#838181"/>
        <path d="M112.85 130.465H105.183V147.075H112.85V130.465Z" fill="#838181"/>
        <path d="M77.2 130.465H69.5333V147.075H77.2V130.465Z" fill="#838181"/>
    </mask>
    <g mask="url(#mask0)">
        <rect width="182" height="182" fill="url(#paint0_linear)"/>
    </g>
    <defs>
        <linearGradient id="paint0_linear" x1="0" y1="0" x2="182" y2="182" gradientUnits="userSpaceOnUse">
            <stop stop-color="#A689BE"/>
            <stop offset="1" stop-color="#EFB5BA"/>
        </linearGradient>
    </defs>
</svg>
